<?xml version="1.0" encoding="utf-8"?>
<!-- Generator: Adobe Illustrator 19.2.1, SVG Export Plug-In . SVG Version: 6.00 Build 0)  -->
<svg version="1.1" id="layer" xmlns="http://www.w3.org/2000/svg" xmlns:xlink="http://www.w3.org/1999/xlink" x="0px" y="0px"
	 viewBox="0 0 652 652" style="enable-background:new 0 0 652 652;" xml:space="preserve">
<style type="text/css">
	.st0{fill:#4D4397;}
</style>
<g>
	<path class="st0" d="M551.9,511.6h-14.1c-45.2,0-48.8-26.9-48.8-53.7v-92.4c135-23,276-23.7,276-23.7s-150.7-7.8-341.7,17
		c-191,24.8-298.3,95.4-374.6,159.4c-54.5,45.7-86.3,49.5-100,47.9c-1.9-0.4-3.7-0.8-5.6-1.3c1.1,0.4,2.2,0.6,3.3,0.9
		c-1.5-0.3-2.7-0.6-3.6-0.9c5.2,2,18.6,6.5,34.4,6.5c20.2,0,53.7-9.9,128.4-4.5c28.8,2.1,44.6-12.4,67.2-36.5
		c19.9,27,52.1,40.8,96,40.8c48.8,0,118-26.2,118-110.3c0-15.5-8.5-21.9-21.9-21.9H343c0,0-20.5,0-20.5,21.2
		c0,24-16.9,51.6-53.7,51.6c-23.6,0-40.2-9.2-48.6-29.1c21-18.8,48.1-39.6,85-60.8c31.8-18.3,73.8-32.4,119.5-43.3v79.5
		c0,70,36.8,113.1,113.1,113.1h14.1c12,0,20.5-9.2,20.5-19.8v-20.5C572.4,520.1,563.9,511.6,551.9,511.6"/>
	<path class="st0" d="M213.6,346.8v0.1v-29.1c0-29.7,21.9-50.2,50.9-50.2c32.5,0,47.4,16.3,47.4,36.8c0,12.7,8.5,20.5,19.1,20.5
		h26.2c10.6,0,19.1-7.8,19.1-20.5c0-58.7-47.4-96.1-111.7-96.1c-60.8,0-115.2,40.3-115.2,125.1v72c24.3-12.2,47.8-22.7,64.3-29.3
		V346.8z"/>
	<path class="st0" d="M489,91.7c0-12-9.2-20.5-19.8-20.5h-25.4c-10.6,0-19.1,8.5-19.1,20.5v235c22.1-3.1,49.4-4.9,64.3-5.6V91.7z"/>
	<path class="st0" d="M-13.2,555.4C21,537.4,47.5,484.4,93.5,445.2l8.9-7.9c1.9-1.6,6-5.7,9.6-9.3v-95.3
		c0-84.8-54.4-125.1-115.2-125.1c-64.3,0-111.7,37.5-111.7,96.1c0,12.7,8.5,20.5,19.1,20.5h26.2c10.6,0,19.1-7.8,19.1-20.5
		c0-20.5,14.8-36.8,47.4-36.8c29,0,50.9,20.5,50.9,50.2v29.7l-84.1,20.5c-66.4,16.3-87.7,46.7-87.7,101.8
		c0,42.4,25.6,77.9,61.6,93.4c1.5,0.6,3,1.2,4.5,1.7C-50.8,565.6-35.6,566-13.2,555.4 M-26.7,426.8l74.2-17.7v35.3
		c0,32.5-25.5,67.2-62.2,67.2c-26.9,0-45.2-22.6-45.2-45.2C-59.9,453.6-55,433.1-26.7,426.8"/>
	<path class="st0" d="M-57.2,564.7c-1.4-0.6-2.3-0.9-2.3-0.9S-58.7,564.3-57.2,564.7"/>
	<polygon class="st0" points="515.9,90.3 515.9,92 513,92 513,99.8 511,99.8 511,92 508.2,92 508.2,90.3 	"/>
	<path class="st0" d="M523.3,90.3h2.9v9.5h-1.9v-6.4c0-0.2,0-0.4,0-0.8c0-0.3,0-0.6,0-0.8l-1.8,8h-1.9l-1.8-8c0,0.2,0,0.4,0,0.8
		c0,0.3,0,0.6,0,0.8v6.4H517v-9.5h2.9l1.7,7.5L523.3,90.3z"/>
</g>
</svg>
