<svg xmlns="http://www.w3.org/2000/svg" width="112.862" height="36" viewBox="0 0 112.862 36"><defs><style>.a{fill:#fff;}.b{fill:#ed1c24;}</style></defs><g transform="translate(-0.89 -1.5)"><path class="a" d="M21.209,2.79V14.284h-.925a14.133,14.133,0,0,0-1.617-5.27,8.328,8.328,0,0,0-3.312-3.1,9.322,9.322,0,0,0-4.461-1.169A6.127,6.127,0,0,0,6.6,6.306a4.7,4.7,0,0,0-1.7,3.507,4.149,4.149,0,0,0,1.071,2.766q1.549,1.841,7.383,4.87a51.186,51.186,0,0,1,6.487,3.838,9.419,9.419,0,0,1,2.679,3.146,8.163,8.163,0,0,1,.974,3.8,8.523,8.523,0,0,1-3.01,6.565,10.968,10.968,0,0,1-7.695,2.727,16.628,16.628,0,0,1-2.776-.224,28.5,28.5,0,0,1-3.214-.9A14.709,14.709,0,0,0,3.7,35.635a1.325,1.325,0,0,0-.974.37,2.922,2.922,0,0,0-.536,1.52H1.221V26.138H2.2a15.848,15.848,0,0,0,1.724,5.357,8.338,8.338,0,0,0,3.36,2.922A10.617,10.617,0,0,0,12.247,35.6a7.169,7.169,0,0,0,4.938-1.617A4.968,4.968,0,0,0,19,30.151a5.1,5.1,0,0,0-.692-2.474A7.461,7.461,0,0,0,16.173,25.4q-.974-.731-5.328-3.127A51.82,51.82,0,0,1,4.65,18.462a10.335,10.335,0,0,1-2.786-3.136,7.646,7.646,0,0,1-.974-3.77A8.1,8.1,0,0,1,3.715,5.371a10.1,10.1,0,0,1,7.13-2.581,14.611,14.611,0,0,1,5.737,1.3A5.981,5.981,0,0,0,18.53,4.7a1.51,1.51,0,0,0,1.062-.38,3,3,0,0,0,.662-1.529Z" transform="translate(0 -0.033)"/><path class="a" d="M23.81,14.639h9.312v.906a3,3,0,0,0-1.685.468,1.354,1.354,0,0,0-.4,1.052,5.3,5.3,0,0,0,.409,1.821L36.2,31.8l4.783-10.51L39.716,17.98a3.9,3.9,0,0,0-1.529-2.016,4.432,4.432,0,0,0-1.948-.419v-.906H46.778v.906a4.451,4.451,0,0,0-2.474.633,1.51,1.51,0,0,0-.487,1.247,2.815,2.815,0,0,0,.195.974l5.046,12.887,4.685-12.4a6.526,6.526,0,0,0,.487-2.1,1.042,1.042,0,0,0-.477-.838,3.458,3.458,0,0,0-1.851-.419V14.62h7.013v.906a4.013,4.013,0,0,0-3.107,2.922L48.346,37.763h-.974L41.82,23.435,35.352,37.763h-.9l-7.13-18.877a6.818,6.818,0,0,0-1.383-2.4,4.6,4.6,0,0,0-2.133-.974Z" transform="translate(-0.595 -0.341)"/><path class="a" d="M68.031,35.838a2.094,2.094,0,0,1-.857-1.042,8.562,8.562,0,0,1-.292-2.805V14H65.829l-6.4,2.747.321.886a4.432,4.432,0,0,1,1.578-.37,1.383,1.383,0,0,1,.974.3,1.948,1.948,0,0,1,.516,1.091,32.571,32.571,0,0,1,.2,4.724V32.03a8.328,8.328,0,0,1-.312,2.815,2.162,2.162,0,0,1-.847,1.052,4.559,4.559,0,0,1-2.084.321V37.1H70.106v-.886A4.344,4.344,0,0,1,68.031,35.838Z" transform="translate(-1.52 -0.324)"/><path class="a" d="M79.068,16.075V30.822q0,3.136.653,3.964a2.776,2.776,0,0,0,2.289,1.081h1.948v.886H71.3v-.886h.974a3.068,3.068,0,0,0,1.695-.487,2.513,2.513,0,0,0,1.052-1.325,11.766,11.766,0,0,0,.292-3.234V16.075h-4.2V14.312h4.13V12.841a14.114,14.114,0,0,1,.974-5.688,8.767,8.767,0,0,1,3.117-3.76A8.182,8.182,0,0,1,84.1,2a6.916,6.916,0,0,1,4.432,1.627A3.175,3.175,0,0,1,89.88,6.1a2.016,2.016,0,0,1-.6,1.383,1.763,1.763,0,0,1-1.3.653,2.016,2.016,0,0,1-1.13-.4,6.487,6.487,0,0,1-1.4-1.744,6.059,6.059,0,0,0-1.578-1.8,2.922,2.922,0,0,0-1.6-.468,2.8,2.8,0,0,0-1.812.6,3.429,3.429,0,0,0-1.071,1.86,37.071,37.071,0,0,0-.321,6.526v1.617h5.474v1.763Z" transform="translate(-1.823 -0.013)"/><path class="a" d="M91.007,7.07v7.374h5.26v1.714h-5.26V30.71a4.87,4.87,0,0,0,.623,2.922,2,2,0,0,0,1.607.76,2.825,2.825,0,0,0,1.578-.507A3.214,3.214,0,0,0,95.994,32.4h.974a7.7,7.7,0,0,1-2.435,3.614,5.25,5.25,0,0,1-3.244,1.218,4.354,4.354,0,0,1-2.211-.623,3.77,3.77,0,0,1-1.6-1.792,9.37,9.37,0,0,1-.516-3.594V16.158H83.4v-.808a9.3,9.3,0,0,0,2.766-1.821,14.445,14.445,0,0,0,2.523-3.049A27.353,27.353,0,0,0,90.267,7.07Z" transform="translate(-2.142 -0.145)"/><path class="a" d="M108.409,33.831a36.774,36.774,0,0,1-4.315,3.088,6.565,6.565,0,0,1-2.805.614,5.026,5.026,0,0,1-3.818-1.588A5.844,5.844,0,0,1,96,31.746,5.377,5.377,0,0,1,96.73,28.9a9.682,9.682,0,0,1,3.477-3.136,53.961,53.961,0,0,1,8.231-3.575V21.3q0-3.351-1.062-4.607a3.828,3.828,0,0,0-3.088-1.247,3.448,3.448,0,0,0-2.435.828,2.513,2.513,0,0,0-.974,1.948v1.422a2.455,2.455,0,0,1-.575,1.744,1.948,1.948,0,0,1-1.5.614,1.89,1.89,0,0,1-1.481-.633,2.493,2.493,0,0,1-.575-1.744,5.016,5.016,0,0,1,2.153-3.9A9.234,9.234,0,0,1,104.99,14a10.4,10.4,0,0,1,4.87.974,4.627,4.627,0,0,1,2.123,2.377,13.442,13.442,0,0,1,.438,4.315v7.617a34.652,34.652,0,0,0,.127,3.9,1.627,1.627,0,0,0,.4.974.974.974,0,0,0,.643.244,1.315,1.315,0,0,0,.682-.175,15.3,15.3,0,0,0,1.948-1.792V33.8q-2.737,3.672-5.221,3.672a2.367,2.367,0,0,1-1.948-.828A4.51,4.51,0,0,1,108.409,33.831Zm-.292-1.3V23.681a23.309,23.309,0,0,0-7.451,4.49,4.033,4.033,0,0,0-1.032,2.669,4.617,4.617,0,0,0,1.315,3.029,4.987,4.987,0,0,0,3.02,1.208c1.539-.01,4.149-2.571,4.149-2.571Z" transform="translate(-2.469 -0.324)"/><ellipse class="b" cx="4.081" cy="4.188" rx="4.081" ry="4.188" transform="translate(58.995 1.5)"/></g></svg>